<?xml version="1.0" ?><!DOCTYPE svg  PUBLIC '-//W3C//DTD SVG 1.1//EN'  'http://www.w3.org/Graphics/SVG/1.1/DTD/svg11.dtd'><svg enable-background="new 0 0 1024 1024" height="1024px" id="Layer_1" version="1.1" viewBox="0 0 1024 1024" width="1024px" xml:space="preserve" xmlns="http://www.w3.org/2000/svg" xmlns:xlink="http://www.w3.org/1999/xlink"><g id="Background"><path d="M983.766,312.727c-25.785-60.972-62.694-115.728-109.705-162.744   C827.05,102.966,772.299,66.049,711.329,40.257C648.194,13.548,581.14,0.004,512,0c-69.104,0-136.155,13.54-199.289,40.243   c-60.969,25.787-115.721,62.699-162.735,109.71c-47.014,47.011-83.929,101.761-109.72,162.728   C13.548,375.814,0.004,442.865,0,511.97c-0.004,69.109,13.533,136.165,40.234,199.304   c25.785,60.973,62.696,115.728,109.707,162.743c47.011,47.018,101.762,83.935,162.732,109.727   c63.136,26.708,130.19,40.253,199.323,40.257h0.009c69.104,0,136.153-13.54,199.288-40.243   c60.969-25.787,115.72-62.699,162.733-109.709c47.013-47.01,83.929-101.76,109.72-162.728   c26.708-63.134,40.251-130.186,40.255-199.29C1024.004,442.921,1010.467,375.866,983.766,312.727z M512.004,976.328h-0.03   c-124.026-0.007-240.627-48.313-328.323-136.019C95.957,752.604,47.665,635.999,47.672,511.973   c0.015-256.016,208.312-464.3,464.356-464.3c124.026,0.007,240.626,48.312,328.32,136.017   c87.695,87.706,135.986,204.311,135.979,328.337C976.313,768.043,768.018,976.328,512.004,976.328z" fill="#B3C2BA"/></g><g id="Steam"><circle cx="745.55" cy="416.131" fill="#B3C2BA" r="56.749"/><path d="M866.688,416.129c0-66.9-54.236-121.137-121.138-121.137c-66.903,0-121.139,54.236-121.139,121.137   c0,8.716,0.929,17.215,2.678,25.409l-0.009-0.005l-26.622,73.644l0.029,0.025c-58.146,1.044-104.96,48.499-104.96,106.89   c0,59.048,47.867,106.917,106.917,106.917c59.044,0,106.915-47.869,106.915-106.917c0-6.334-0.556-12.538-1.611-18.568   l68.025-70.054l0,0C828.049,520.042,866.688,472.6,866.688,416.129z M602.443,694.074c-39.692,0-71.984-32.292-71.984-71.983   c0-39.689,32.292-71.981,71.984-71.981c39.69,0,71.981,32.292,71.981,71.981C674.425,661.782,642.134,694.074,602.443,694.074z    M745.55,497.689c-44.968,0-81.559-36.592-81.559-81.562c0-44.969,36.591-81.557,81.559-81.557   c44.97,0,81.558,36.588,81.558,81.557C827.107,461.099,790.52,497.689,745.55,497.689z" fill="#B3C2BA"/><path d="M259.466,395.293c-56.418,0-102.154,45.737-102.154,102.151c0,56.417,45.736,102.152,102.154,102.152   c56.413,0,102.151-45.735,102.151-102.152C361.617,441.03,315.879,395.293,259.466,395.293z M259.466,566.222   c-37.925,0-68.778-30.854-68.778-68.776s30.853-68.776,68.778-68.776c37.923,0,68.775,30.854,68.775,68.776   S297.39,566.222,259.466,566.222z" fill="#B3C2BA"/><path d="M620.767,574.684c23.365,8.384,34.881,35.878,25.719,61.401l0,0c-9.163,25.526-35.531,39.421-58.896,31.035   L249.157,545.649c-23.365-8.385-34.88-35.876-25.715-61.402l0,0c9.161-25.523,35.529-39.419,58.893-31.035L620.767,574.684z" fill="#B3C2BA"/></g></svg>